<svg width="162" height="265" viewBox="0 0 162 265" fill="none" xmlns="http://www.w3.org/2000/svg">
<path fill-rule="evenodd" clip-rule="evenodd" d="M70.0771 1.40125C56.6104 5.93458 47.0104 13.1346 39.8104 24.2012C34.2104 32.8679 29.4104 46.6012 29.4104 53.9346C29.4104 57.4012 28.4771 59.2679 25.5437 61.8012C21.0104 65.6679 18.7437 71.5346 18.4771 79.9346C18.3437 87.2679 19.5437 91.1346 23.4104 96.3346C26.077 99.9346 26.2104 101.135 25.2771 109.001C24.6104 113.801 22.877 121.535 21.4104 126.335C16.2104 143.268 19.2771 158.201 29.0104 164.068C32.2104 165.801 33.4104 167.401 32.877 168.868C32.7303 169.308 32.3505 170.394 31.8229 171.902C30.9121 174.505 29.5613 178.366 28.2104 182.335C25.9437 188.601 24.2104 194.868 24.2104 196.468C24.0771 198.601 22.7437 199.668 18.6104 200.868C10.3437 203.401 1.43799 212.201 0.210386 220.868C-1.01721 229.535 3.43799 235.935 5.54372 238.601C7.64946 241.268 16.6104 247.001 21.9437 248.201C24.8771 248.868 25.4104 249.535 24.2104 250.735C23.4104 251.535 22.7437 254.201 22.7437 256.601C22.7437 259.801 23.6771 261.535 26.2104 263.135C29.4104 265.268 30.2104 265.268 40.4771 263.001C46.4771 261.668 54.0771 260.335 57.4104 260.068C58.6065 259.924 60.1631 259.746 61.8584 259.553C64.8878 259.207 68.3602 258.81 71.0104 258.468C77.5437 257.668 80.3437 258.068 89.6771 261.268C102.477 265.535 106.344 265.801 110.61 262.868C113.144 261.001 113.544 259.935 112.744 256.201C112.077 252.335 112.344 251.668 114.61 251.668C123.144 251.668 137.944 243.668 142.877 236.468C142.877 236.468 145.677 232.335 146.438 227.268C147.199 222.201 142.877 212.735 141.544 209.668C139.544 207.535 139.01 203.935 138.344 189.268C137.677 172.335 137.677 171.668 140.21 171.668C146.477 171.668 154.744 164.601 159.677 155.135C162.477 149.668 162.477 136.068 159.544 125.001C158.21 120.201 156.877 112.468 156.477 107.668C155.944 100.335 156.21 97.9346 158.61 93.6679C162.077 87.1346 162.21 77.9346 159.01 71.4012C157.544 68.7346 156.077 63.0012 155.677 58.6012C154.61 48.4679 150.344 37.1346 144.877 29.9346C139.41 22.7346 123.144 10.2012 112.077 4.73456C104.21 0.867892 102.077 0.467902 89.4104 0.0679016C80.4771 -0.198765 73.5437 0.334579 70.0771 1.40125ZM136.344 35.1346C131.01 23.9346 121.277 14.0679 110.21 8.8679C99.5437 3.93457 83.5437 2.60124 72.0771 5.66791C57.4104 9.66791 43.2771 23.0012 37.5437 37.9346C34.3437 46.4679 32.4771 58.3346 34.4771 58.3346C35.1437 58.3346 36.2104 55.5346 36.7437 51.9346C39.0104 36.6012 51.5437 19.9346 65.6771 13.6679C76.8771 8.60124 91.6771 8.33457 103.01 12.7346C118.077 18.7346 131.41 35.6679 133.144 51.0012C133.544 55.6679 134.21 57.0012 135.677 56.4679C136.744 55.9346 138.61 55.6679 139.677 55.6679C142.877 55.6679 141.277 45.5346 136.344 35.1346ZM129.01 52.8679C127.277 38.8679 116.744 24.4679 103.41 18.2012C93.4104 13.4012 79.4104 13.0012 68.6104 17.1346C55.1437 22.2012 42.8771 39.2679 40.2104 56.3346C39.5437 60.7346 39.2771 64.6012 39.5437 65.0012C40.7437 66.2012 52.3437 58.8679 59.6771 52.3346C63.8104 48.7346 69.5437 42.0679 72.3437 37.6679C75.2771 33.2679 77.9437 29.8012 78.4771 30.0679C79.0104 30.3346 79.6771 29.1346 80.0771 27.4012C81.5437 21.4012 84.7437 23.9346 85.5437 31.6679C86.4771 40.0679 87.9437 43.4012 94.2104 51.2679C98.7437 56.7346 110.344 63.6679 115.01 63.6679C117.144 63.6679 117.01 63.0012 113.544 58.6012C109.41 53.5346 105.41 44.0679 105.41 39.5346C105.41 35.2679 109.144 36.7346 110.077 41.2679C111.544 47.9346 115.544 55.0012 120.344 59.5346C124.477 63.4012 124.744 63.4012 127.144 61.2679C129.144 59.4012 129.544 57.8012 129.01 52.8679ZM151.41 59.5346C152.477 58.4679 148.344 44.2012 145.41 38.6012C144.077 35.9346 141.544 32.2012 140.077 30.3346C137.677 27.4012 137.81 27.9346 140.744 34.4679C142.61 38.4679 144.61 45.1346 145.41 49.1346C146.744 55.8012 149.81 61.1346 151.41 59.5346ZM93.5437 56.6012C87.8104 51.0012 81.4104 40.3346 81.4104 36.3346C81.4104 32.7346 79.5437 34.3346 74.7437 41.9346C68.6104 51.5346 57.9437 61.2679 48.2104 65.9346L40.4771 69.6679L39.5437 83.5346C38.6104 96.8679 38.7437 97.6679 42.2104 104.735C48.2104 117.001 59.9437 122.335 80.8771 122.335C89.9437 122.335 90.8771 122.068 91.9437 119.268C92.6104 117.668 94.3437 115.268 95.8104 113.935C98.0771 111.935 98.2104 110.868 97.0104 107.801C95.4104 103.268 96.4771 99.6679 99.5437 99.6679C100.744 99.6679 102.477 98.7346 103.277 97.6679C104.477 96.0679 106.077 95.9346 110.744 96.7346C115.277 97.5346 117.277 98.7346 119.544 102.068C121.944 105.535 122.744 105.935 123.944 104.468C125.144 103.001 124.744 101.135 122.077 96.2012C119.01 90.6012 118.61 88.4679 119.144 81.0012C119.41 76.2012 120.077 71.4012 120.61 70.3346C121.277 68.7346 120.344 68.3346 116.21 68.0679C108.877 67.6679 100.21 63.2679 93.5437 56.6012ZM151.41 64.3346L147.144 61.9346C140.477 58.3346 135.41 59.2679 129.277 65.4012C122.744 72.0679 121.144 83.2679 125.41 92.6012C129.544 101.668 137.677 105.535 146.344 102.201L149.944 100.868L144.744 98.4679C138.21 95.5346 136.077 91.4012 136.077 81.0012C136.077 71.4012 140.21 65.4012 147.144 64.7346L151.41 64.3346ZM30.4771 94.3346C26.6104 89.0012 25.5437 75.6679 28.4771 68.6012C31.0104 62.8679 29.4104 62.0679 25.9437 67.2679C23.4104 71.2679 21.9437 81.6679 23.2771 86.8679C24.2104 90.4679 30.3437 98.3346 32.2104 98.3346C32.8771 98.3346 32.2104 96.4679 30.4771 94.3346ZM33.2771 91.5346C34.0771 92.7346 34.7437 90.0679 35.2771 84.2012C35.8104 79.1346 35.6771 72.3346 35.0104 69.0012L33.9437 63.0012L32.0771 70.4679C30.4771 77.9346 31.0104 87.8012 33.2771 91.5346ZM156.744 82.3346C156.744 78.7346 155.81 74.7346 154.344 72.6012C150.344 66.4679 142.61 68.6012 140.61 76.4679C139.277 81.5346 140.877 90.2012 143.544 93.1346C149.277 99.5346 156.744 93.4012 156.744 82.3346ZM115.01 105.935C115.544 111.268 113.277 111.801 111.544 106.735C110.744 104.335 109.41 101.801 108.61 101.001C106.477 98.8679 105.277 101.001 106.877 103.935C109.01 107.935 107.277 112.068 102.61 114.201C98.0771 116.201 94.7437 122.335 94.7437 128.735C94.7437 132.201 95.1437 132.601 97.9437 132.068C100.21 131.535 101.41 130.335 101.677 128.068C101.944 125.401 103.41 124.201 107.944 122.335C111.144 121.135 114.61 119.001 115.544 117.668C117.677 114.735 118.077 104.201 116.077 103.001C115.277 102.468 114.877 103.668 115.01 105.935ZM63.1437 125.001C55.0104 124.868 42.4771 116.201 38.0771 107.535C37.0104 105.668 35.0104 103.668 33.5437 103.268C31.2771 102.735 30.8771 103.535 30.0771 109.535C29.5437 113.268 27.6771 121.135 25.9437 126.868C22.3437 138.868 22.0771 143.001 24.3437 150.601C25.6771 155.268 31.9437 162.335 34.7437 162.335C35.2771 162.335 37.5437 159.135 39.8104 155.268C45.9437 144.468 54.4771 134.335 60.8771 130.468C67.5437 126.468 68.2104 125.001 63.1437 125.001ZM157.41 141.401C157.41 137.135 156.744 131.535 155.944 129.001C155.144 126.468 153.81 119.668 153.01 114.068L151.41 103.935L148.077 105.668C144.21 107.801 135.01 108.201 132.077 106.335C129.677 104.868 121.41 112.201 121.41 115.801C121.41 118.201 115.144 125.001 112.877 125.001C112.077 125.001 113.277 126.335 115.677 127.801C123.144 132.601 130.744 146.468 134.877 163.001L136.344 168.868L141.144 166.868C151.677 162.468 157.41 153.535 157.41 141.401ZM82.0771 127.268C67.6771 128.468 67.5437 131.535 81.9437 132.601C87.5868 133.114 89.6112 133.298 90.3375 132.415C90.7437 131.921 90.7437 131.093 90.7437 129.801C90.7437 127.801 90.0771 126.468 89.1437 126.601C88.4514 126.7 86.512 126.872 84.3594 127.064C83.6099 127.13 82.8346 127.199 82.0771 127.268ZM132.61 175.001C128.744 152.335 122.344 138.201 113.01 131.535C110.077 129.401 106.477 127.668 106.477 127.668L107.544 137.535C108.433 142.423 110.477 152.815 111.544 155.268C112.877 158.335 116.077 168.735 116.077 168.868C116.077 168.877 116.079 168.901 116.081 168.937C116.108 169.302 116.228 170.921 115.544 171.668C114.489 172.82 113.044 172.368 111.544 168.868C110.582 166.625 109.561 162.722 108.726 159.534C108.259 157.748 107.85 156.187 107.544 155.268C107.135 154.042 106.657 151.719 106.129 149.156C105.28 145.029 104.302 140.277 103.277 138.468C102.29 136.724 100.705 134.034 99.5437 135.135C99.09 135.565 98.4402 135.719 97.8168 135.868C96.8452 136.1 95.938 136.316 95.938 137.535C95.938 138.025 96.2332 138.983 96.514 139.893C96.7607 140.692 96.9961 141.455 97.0104 141.834C97.0332 142.441 97.0269 143.101 97.0193 143.883V143.885V143.886C97.015 144.326 97.0104 144.805 97.0104 145.334V150.601V158.335C97.0104 161.401 97.9264 174.848 98.3667 178.889L98.3743 178.959C98.8119 182.975 99.2354 186.86 97.8104 187.001C94.8515 187.294 94.1044 184.826 93.6988 183.486C93.6422 183.299 93.5922 183.134 93.5437 183.001L92.3903 176.027L91.9437 166.601C92.0026 165.367 91.9687 160.498 91.9516 158.058V158.055C91.9471 157.401 91.9437 156.921 91.9437 156.735V145.334C91.9437 142.591 91.9437 139.893 89.1437 138.468C89.1437 138.468 88.0187 137.568 85.4312 137.568C84.5687 137.568 83.5437 137.568 82.3437 137.535C78.4771 137.401 73.4104 136.335 71.0104 135.135C68.7437 133.935 66.0771 133.001 65.0104 133.001C61.2771 133.001 48.6104 148.601 42.3437 160.601C37.0104 170.868 28.0771 194.335 28.0771 197.801C28.0771 198.468 32.0771 199.001 36.8771 199.001H45.5437L48.8771 193.668C50.7437 190.735 54.6104 183.535 57.6771 177.668C63.771 165.48 63.8129 165.522 65.2818 167.005L65.3403 167.064L65.4104 167.135C67.0104 168.735 62.2104 179.935 54.6104 192.735C50.2104 200.068 49.8104 201.268 51.8104 201.801C57.8104 203.668 65.5437 207.935 69.8104 211.668L74.6104 215.801L79.5437 212.868C80.3205 212.292 80.7386 212.051 81.2967 211.73C81.7404 211.474 82.2726 211.168 83.1437 210.601C88.938 206.834 99.8104 201.268 107.544 200.201L114.61 199.401L128.077 201.001L134.744 203.268V195.135C134.744 190.601 133.81 181.535 132.61 175.001ZM69.4104 217.001C69.4104 217.001 54.7437 207.401 48.6104 205.535C40.3437 203.135 24.7437 203.268 18.7437 205.801C6.74372 211.001 1.14372 222.201 5.94372 231.401C10.6104 240.335 25.0104 247.401 33.5437 245.001C36.0771 244.201 41.0104 243.668 44.7437 243.535C52.6104 243.535 62.6104 239.801 65.1437 235.935C66.7437 233.401 66.2104 232.868 53.5437 226.468C46.2104 222.735 39.4104 219.668 38.3437 219.668C35.5437 219.668 31.5437 216.201 32.6104 214.601C33.6771 212.868 45.5437 216.735 54.3437 221.668L60.3437 225.001C60.3437 225.001 63.4387 226.557 64.438 227.268C65.938 228.334 69.4104 230.601 69.4104 230.601L73.2771 233.935L78.8771 230.601L84.4771 227.268L88.7437 224.601L99.2771 219.401C110.344 214.068 112.744 213.535 114.077 215.535C114.477 216.335 107.144 220.735 97.8104 225.535C88.4771 230.335 79.4104 235.401 77.6771 236.735L74.4771 239.135L77.6771 245.801C79.2771 249.401 80.8771 252.601 81.0104 252.868C81.6771 253.935 117.01 247.268 123.677 244.735C137.677 239.535 145.41 228.068 141.41 218.468C139.41 213.401 132.344 207.001 126.877 205.135C119.144 202.601 106.344 203.801 96.7437 207.935C91.8104 210.068 80.938 215.801 80.438 217.334L78.438 218.834L75.938 220.334C75.938 220.334 74.5989 220.275 73.938 219.834C73.4485 219.508 72.5906 219.105 72.0052 218.83C71.8001 218.733 71.6285 218.653 71.5178 218.597C70.7311 218.198 69.4104 217.001 69.4104 217.001ZM74.0771 248.201C73.0104 246.068 72.0771 243.668 72.0771 242.735C72.0771 240.468 70.0771 239.535 68.4771 241.135C65.6771 243.935 48.477 249.001 41.8104 249.001C33.8104 249.001 28.4771 251.001 27.4104 254.468C25.4104 260.468 28.3437 260.735 47.8104 257.001C55.2771 255.535 64.4771 254.335 68.0771 254.335C71.6771 254.335 74.8771 253.801 75.2771 253.135C75.6771 252.468 75.1437 250.201 74.0771 248.201ZM102.077 260.201C104.877 261.135 109.41 258.468 108.61 256.335C107.81 254.201 103.677 254.068 94.0771 255.535L88.7437 256.468L94.7437 258.201C98.0771 259.001 101.41 259.935 102.077 260.201Z" fill="#D9D9D9"/>
<path d="M46.3437 75.2678C44.6104 76.8678 45.4104 79.6678 47.4104 79.6678C48.477 79.6678 49.4104 80.8678 49.4104 82.3345C49.4104 83.8011 50.077 85.0011 50.7437 85.0011C51.5437 85.0011 52.077 84.3345 52.077 83.6678C52.077 81.1345 54.477 82.3345 55.277 85.2678L56.2104 88.3345L58.3437 85.2678C59.4104 83.6678 61.5437 82.3345 62.877 82.3345C65.1437 82.3345 69.4104 77.8011 69.4104 75.4011C69.4104 73.5345 65.8104 74.2011 64.077 76.3345C63.1437 77.5345 60.2104 78.3345 57.1437 78.3345C53.8104 78.3345 51.677 77.6678 51.277 76.3345C50.477 74.2011 47.8104 73.6678 46.3437 75.2678Z" fill="#D9D9D9"/>
<path d="M88.8771 75.4011C87.6771 77.2678 92.0771 82.3344 94.8771 82.3344C96.2104 82.3344 97.4104 83.1344 97.4104 84.2011C97.4104 87.4011 100.21 88.2011 101.01 85.1344C101.677 82.3344 104.077 81.1344 104.077 83.6678C104.077 84.3344 105.01 85.0011 106.21 85.0011C107.677 85.0011 108.077 84.2011 107.41 82.2011C106.61 79.8011 106.877 79.5344 109.277 80.3344C112.21 81.2678 112.744 80.2011 111.277 76.4678C110.21 73.8011 107.544 73.6678 105.41 76.3344C104.477 77.4011 101.81 78.3344 99.4104 78.3344C97.0104 78.3344 94.3438 77.4011 93.4104 76.3344C91.5438 74.0678 89.9438 73.8011 88.8771 75.4011Z" fill="#D9D9D9"/>
<path d="M70.688 99.5845C72.7409 99.5845 74.7204 99.8345 76.813 99.8345C77.6606 99.8345 78.3833 99.3345 79.3269 99.3345C80.6736 99.3345 81.1108 99.1231 82.188 98.5845" stroke="#D9D9D9" stroke-width="5" stroke-linecap="round"/>
</svg>
