<svg width="56" height="56" viewBox="0 0 56 56" fill="none" xmlns="http://www.w3.org/2000/svg">
<path fill-rule="evenodd" clip-rule="evenodd" d="M17.2096 32.5942C16.934 32.1595 16.9299 31.6058 17.1989 31.1669L27.3282 14.644C27.8916 13.725 29.252 13.8053 29.7033 14.7843L38.9569 34.8575C39.3002 35.6023 38.905 36.4786 38.1194 36.7143L23.7247 41.0327C23.1456 41.2064 22.5216 40.9736 22.1978 40.4629L17.2096 32.5942ZM28.4969 19.4752C28.5945 18.9891 29.2605 18.919 29.4572 19.3741L35.8402 34.144C35.9603 34.4221 35.8108 34.7428 35.5205 34.8294L25.5749 37.7983C25.2093 37.9074 24.8592 37.588 24.9343 37.2139L28.4969 19.4752Z" fill="white"/>
</svg>
